<svg xmlns="http://www.w3.org/2000/svg" width="1200" height="700" viewBox="0 0 1200 700">
  <defs>
    <linearGradient id="sky" x1="0" x2="0" y1="0" y2="1">
      <stop offset="0%" stop-color="#79c8ff" />
      <stop offset="68%" stop-color="#c5eeff" />
      <stop offset="69%" stop-color="#7bbf57" />
      <stop offset="100%" stop-color="#5b8f39" />
    </linearGradient>
    <linearGradient id="rack" x1="0" x2="1">
      <stop offset="0%" stop-color="#171d29" />
      <stop offset="50%" stop-color="#253042" />
      <stop offset="100%" stop-color="#111721" />
    </linearGradient>
    <linearGradient id="glass" x1="0" x2="0" y1="0" y2="1">
      <stop offset="0%" stop-color="#99ddff" stop-opacity="0.95" />
      <stop offset="100%" stop-color="#4fa6db" stop-opacity="0.95" />
    </linearGradient>
    <linearGradient id="grass" x1="0" x2="0" y1="0" y2="1">
      <stop offset="0%" stop-color="#7ed957" />
      <stop offset="100%" stop-color="#4d8a31" />
    </linearGradient>
    <filter id="softShadow" x="-20%" y="-20%" width="140%" height="140%">
      <feDropShadow dx="0" dy="18" stdDeviation="18" flood-color="#0b1020" flood-opacity="0.25" />
    </filter>
  </defs>

  <rect width="1200" height="700" fill="url(#sky)" />

  <g opacity="0.95">
    <circle cx="960" cy="135" r="52" fill="#fff3a6" />
    <circle cx="960" cy="135" r="92" fill="#fff3a6" opacity="0.18" />
    <g fill="#fff" opacity="0.9">
      <rect x="110" y="90" width="150" height="42" rx="21" />
      <rect x="165" y="72" width="165" height="48" rx="24" />
      <rect x="245" y="92" width="130" height="38" rx="19" />
      <rect x="700" y="102" width="155" height="44" rx="22" />
      <rect x="760" y="84" width="178" height="50" rx="25" />
      <rect x="848" y="104" width="126" height="36" rx="18" />
    </g>
  </g>

  <g filter="url(#softShadow)">
    <rect x="120" y="190" width="960" height="330" rx="28" fill="#162133" />
    <rect x="150" y="220" width="900" height="270" rx="22" fill="url(#rack)" stroke="#51607a" stroke-width="4" />
    <rect x="190" y="255" width="180" height="190" rx="16" fill="#0d121b" />
    <rect x="190" y="255" width="180" height="190" rx="16" fill="url(#glass)" opacity="0.12" />
    <rect x="405" y="255" width="180" height="190" rx="16" fill="#0d121b" />
    <rect x="405" y="255" width="180" height="190" rx="16" fill="url(#glass)" opacity="0.12" />
    <rect x="620" y="255" width="180" height="190" rx="16" fill="#0d121b" />
    <rect x="620" y="255" width="180" height="190" rx="16" fill="url(#glass)" opacity="0.12" />
    <rect x="835" y="255" width="180" height="190" rx="16" fill="#0d121b" />
    <rect x="835" y="255" width="180" height="190" rx="16" fill="url(#glass)" opacity="0.12" />

    <g fill="#67ff9a">
      <circle cx="235" cy="293" r="8" />
      <circle cx="262" cy="293" r="8" />
      <circle cx="439" cy="293" r="8" />
      <circle cx="466" cy="293" r="8" />
      <circle cx="654" cy="293" r="8" />
      <circle cx="681" cy="293" r="8" />
      <circle cx="870" cy="293" r="8" />
      <circle cx="897" cy="293" r="8" />
    </g>
    <g fill="#5fc4ff">
      <rect x="220" y="330" width="135" height="16" rx="8" />
      <rect x="220" y="358" width="100" height="16" rx="8" />
      <rect x="435" y="330" width="135" height="16" rx="8" />
      <rect x="435" y="358" width="100" height="16" rx="8" />
      <rect x="650" y="330" width="135" height="16" rx="8" />
      <rect x="650" y="358" width="100" height="16" rx="8" />
      <rect x="865" y="330" width="135" height="16" rx="8" />
      <rect x="865" y="358" width="100" height="16" rx="8" />
    </g>
    <g fill="#1d2c3f">
      <rect x="210" y="398" width="150" height="18" rx="9" />
      <rect x="425" y="398" width="150" height="18" rx="9" />
      <rect x="640" y="398" width="150" height="18" rx="9" />
      <rect x="855" y="398" width="150" height="18" rx="9" />
    </g>
  </g>

  <g transform="translate(165,510)">
    <rect x="0" y="0" width="870" height="92" rx="18" fill="#7a4b24" />
    <rect x="0" y="0" width="870" height="24" rx="18" fill="#915b2d" />
    <rect x="0" y="24" width="870" height="68" rx="0" fill="#5e3819" />
    <rect x="0" y="0" width="870" height="18" rx="18" fill="#a76b38" opacity="0.75" />
  </g>

  <g transform="translate(210,560)">
    <rect x="0" y="0" width="132" height="132" rx="10" fill="#90c95c" />
    <rect x="0" y="0" width="132" height="24" fill="#65a83f" />
    <rect x="0" y="24" width="132" height="108" fill="#7dc04c" />
    <rect x="32" y="44" width="26" height="26" fill="#17351d" />
    <rect x="74" y="44" width="26" height="26" fill="#17351d" />
    <rect x="52" y="76" width="28" height="22" fill="#17351d" />
  </g>

  <g transform="translate(380,540)">
    <rect x="0" y="0" width="160" height="160" rx="14" fill="#6e4422" />
    <rect x="0" y="0" width="160" height="28" fill="#8b5c2d" />
    <rect x="0" y="28" width="160" height="132" fill="#7c4d28" />
    <rect x="35" y="44" width="28" height="28" fill="#1b1b1b" />
    <rect x="97" y="44" width="28" height="28" fill="#1b1b1b" />
    <rect x="63" y="84" width="34" height="24" fill="#1b1b1b" />
  </g>

  <g transform="translate(575,545)">
    <rect x="0" y="0" width="170" height="170" rx="14" fill="#8b5e34" />
    <rect x="0" y="0" width="170" height="28" fill="#aa7443" />
    <rect x="0" y="28" width="170" height="142" fill="#9b6638" />
    <rect x="42" y="42" width="28" height="28" fill="#ffffff" />
    <rect x="100" y="42" width="28" height="28" fill="#ffffff" />
    <rect x="42" y="82" width="86" height="22" fill="#17351d" />
  </g>

  <g transform="translate(780,540)">
    <rect x="0" y="0" width="170" height="170" rx="14" fill="#7ecb57" />
    <rect x="0" y="0" width="170" height="30" fill="#65a83f" />
    <rect x="0" y="30" width="170" height="140" fill="#8fdc68" />
    <rect x="42" y="46" width="30" height="30" fill="#17351d" />
    <rect x="98" y="46" width="30" height="30" fill="#17351d" />
    <rect x="66" y="88" width="38" height="24" fill="#17351d" />
  </g>

  <text x="600" y="678" font-size="32" text-anchor="middle" font-family="Inter, Arial, sans-serif" fill="#0c1a12" font-weight="800">
    Minecraft Server
  </text>
</svg>
